<?xml version="1.0" encoding="utf-8" standalone="yes"?>
<!DOCTYPE svg PUBLIC "-//W3C//DTD SVG 1.1//EN" "http://www.w3.org/Graphics/SVG/1.1/DTD/svg11.dtd">
<svg style="fill:none;stroke:none;fill-rule:evenodd;clip-rule:evenodd;stroke-linecap:round;stroke-linejoin:round;stroke-miterlimit:1.5;" version="1.1" xmlns="http://www.w3.org/2000/svg" xmlns:xlink="http://www.w3.org/1999/xlink" width="62" height="62" viewBox="0 0 62 62"><g id="items" style="isolation: isolate"><g id="blend" style="mix-blend-mode: normal"><g id="g-root-ic_slac_vagyjuo7v9c1-fill" data-item-order="1000000000" transform="translate(3, 3)"></g><g id="g-root-ic_slac_vagyjuo7v9c1-stroke" data-item-order="1000000000" transform="translate(3, 3)"><g id="ic_slac_vagyjuo7v9c1-stroke" fill="none" stroke-linecap="round" stroke-linejoin="round" stroke-miterlimit="4" stroke="#f4f4f4" stroke-width="2" stroke-opacity="1"><g><path d="M 43.2565 34.237L 32.240501 34.237C 31.515524 34.256889 30.836941 33.881485 30.468588 33.256744C 30.100235 32.632004 30.100235 31.856499 30.468588 31.231756C 30.836941 30.607014 31.515524 30.231607 32.240501 30.251501L 43.2565 30.251501C 43.981476 30.231607 44.660061 30.607014 45.028412 31.231756C 45.396767 31.856499 45.396767 32.632004 45.028412 33.256744C 44.660061 33.881485 43.981476 34.256889 43.2565 34.237ZM 30.258999 23.757999L 30.258999 12.742C 30.239109 12.017023 30.614513 11.33844 31.239256 10.970087C 31.863998 10.601735 32.639503 10.601735 33.264244 10.970087C 33.888985 11.33844 34.264393 12.017023 34.244499 12.742001L 34.244499 23.757999C 34.264393 24.482977 33.888985 25.16156 33.264244 25.529913C 32.639503 25.898266 31.863998 25.898266 31.239256 25.529913C 30.614513 25.16156 30.239109 24.482977 30.259001 23.757999ZM 12.7435 21.763L 23.759501 21.763C 24.484476 21.743109 25.163059 22.118513 25.531412 22.743256C 25.899765 23.367998 25.899765 24.143501 25.531412 24.768244C 25.163059 25.392986 24.484476 25.768393 23.759501 25.748501L 12.7435 25.748499C 12.018523 25.768393 11.33994 25.392986 10.971587 24.768244C 10.603235 24.143501 10.603235 23.367998 10.971587 22.743256C 11.33994 22.118513 12.018523 21.743109 12.7435 21.763ZM 23.747499 30.25C 24.84848 30.25 25.741001 31.142521 25.741001 32.2435L 25.741001 43.259499C 25.760891 43.984478 25.385487 44.663063 24.760744 45.03141C 24.136002 45.399765 23.3605 45.399765 22.735756 45.03141C 22.111013 44.663063 21.735609 43.984478 21.755501 43.259499L 21.755501 32.242001C 21.755501 31.141848 22.647348 30.25 23.747499 30.25ZM 15.976 32.828499C 15.976 34.2915 14.790002 35.477501 13.327 35.477501C 11.903762 35.477501 10.75 34.323738 10.75 32.900501C 10.749171 31.436911 11.935411 30.25 13.399 30.25L 15.6205 30.25C 15.816837 30.250002 15.976 30.409164 15.976 30.605501ZM 25.75 13.3975C 25.749172 11.936255 24.565245 10.751655 23.104 10.75C 21.681349 10.75 20.527828 11.902848 20.527 13.3255C 20.527 14.788503 21.712997 15.9745 23.175999 15.9745L 25.397501 15.9745C 25.593838 15.974501 25.753002 15.815337 25.753002 15.619ZM 30.25 42.602501C 30.250828 44.063744 31.434753 45.248344 32.896 45.25C 34.319237 45.250004 35.473 44.096241 35.473 42.673004C 35.473 41.209999 34.287003 40.023998 32.823997 40.023998L 30.602499 40.024002C 30.406164 40.024002 30.247002 40.183167 30.247002 40.379501ZM 40.024002 23.171501C 40.023998 21.708498 41.209999 20.522499 42.673 20.522499C 44.096241 20.522501 45.250004 21.676264 45.250004 23.099501C 45.250828 24.563087 44.064587 25.75 42.600998 25.75L 40.379501 25.75C 40.183167 25.750002 40.024002 25.590839 40.024002 25.394501Z"></path></g></g></g></g></g></svg>